<svg xmlns="http://www.w3.org/2000/svg" viewBox="0 0 18 21"><defs><style>.cls-1{fill:#8a8a8d;}</style></defs><title>icon_dokument-pdf</title><path class="cls-1" d="M3.77 14.92h-.77v1.43h.81a.71.71 0 1 0 0-1.43zm8.23-14.92v6h6zm-3.47 14.94h-.53v3.12h.57a1.49 1.49 0 0 0 1.58-1.58 1.45 1.45 0 0 0-1.58-1.55zm1.47-7.94v-7h-8a2 2 0 0 0-2 2v17a2 2 0 0 0 2 2h14a2 2 0 0 0 2-2v-11h-7a1 1 0 0 1-1-1zm-6.23 10.23h-.77v1.77h-1v-5h1.77a1.61 1.61 0 1 1 0 3.21zm9.23-3.23h3.09v.92h-2.09v1.24h1.74v.92h-1.74v1.92h-1v-5zm-4.46 5h-1.54v-5h1.54a2.39 2.39 0 0 1 2.57 2.46 2.42 2.42 0 0 1-2.57 2.54z"/></svg>